<svg width="138" height="24" viewBox="0 0 138 24" fill="none" xmlns="http://www.w3.org/2000/svg">
<path d="M9.82943 5.68848L1.4375 14.259L9.82943 22.8295H18.7412L10.3493 14.259L18.7412 5.68848H9.82943ZM128.171 5.68848H119.222L127.614 14.259L119.222 22.8295H128.171L136.562 14.259L128.171 5.68848Z" fill="#FF1478"/>
<path d="M36.006 16.4962C35.2262 17.8994 33.7781 18.8095 32.1071 18.8095C29.6564 18.8095 27.6512 16.7617 27.6512 14.2209C27.6512 11.6801 29.6564 9.63225 32.1071 9.63225C33.7781 9.63225 35.2262 10.5803 36.006 11.9455L40.0163 10.1632C38.4939 7.47067 35.5604 5.65039 32.1442 5.65039C27.2056 5.65039 23.1953 9.48056 23.1953 14.2209C23.1953 18.9612 27.2056 22.7914 32.1442 22.7914C35.5604 22.7914 38.531 20.9711 40.0163 18.2786L36.006 16.4962Z" fill="#0023A0"/>
<path d="M86.8786 5.7263C85.1705 5.7263 83.611 6.4089 82.4227 7.47073V0H77.9297V22.8673H82.4227V13.69C82.4227 11.7939 83.908 10.277 85.7646 10.277C87.6213 10.277 89.1065 11.7939 89.1065 13.69V22.8673H93.5624V12.5903C93.5996 8.79802 90.5919 5.7263 86.8786 5.7263Z" fill="#0023A0"/>
<path d="M105.851 5.68848C100.913 5.68848 96.9023 9.51865 96.9023 14.259C96.9023 18.9993 100.913 22.8295 105.851 22.8295C110.79 22.8295 114.8 18.9993 114.8 14.259C114.8 9.51865 110.79 5.68848 105.851 5.68848ZM105.851 18.8097C103.401 18.8097 101.395 16.7618 101.395 14.259C101.395 11.7561 103.401 9.70826 105.851 9.70826C108.302 9.70826 110.307 11.7561 110.307 14.259C110.307 16.7618 108.339 18.8097 105.851 18.8097Z" fill="#0023A0"/>
<path d="M55.5747 5.68848V7.35707C54.1637 6.29524 52.4556 5.68848 50.599 5.68848C45.9574 5.68848 42.207 9.51865 42.207 14.259C42.207 18.9993 45.9574 22.8295 50.599 22.8295C52.4556 22.8295 54.2008 22.1848 55.5747 21.1609V22.8295H60.0677V5.68848H55.5747ZM51.1188 18.8097C48.6681 18.8097 46.6629 16.7618 46.6629 14.259C46.6629 11.7561 48.6681 9.70826 51.1188 9.70826C53.5696 9.70826 55.5747 11.7561 55.5747 14.259C55.6118 16.7618 53.6067 18.8097 51.1188 18.8097Z" fill="#0023A0"/>
<path d="M73.4352 18.2028C72.9525 18.5821 72.3955 18.8096 71.7643 18.8096C70.2418 18.8096 68.9793 17.5202 68.9793 15.9654V10.2391H73.4352V6.25725H68.9793V2.27539H64.5234V15.9654C64.5234 19.7577 67.5312 22.8294 71.2444 22.8294C72.4698 22.8294 73.6209 22.4122 74.5863 21.6917L73.4352 18.2028Z" fill="#0023A0"/>
</svg>
