<svg width="1280" height="712" viewBox="0 0 1280 712" fill="none" xmlns="http://www.w3.org/2000/svg">
<rect width="1280" height="712" transform="matrix(-1 0 0 1 1280 0)" fill="url(#paint0_linear)"/>
<path d="M-1.49256e-05 469L-1.13337e-05 425.5L-9.96959e-06 358L72.5156 435.674L208 575.713L77.0014 712L31.0011 712L0.000970844 712L0.000970848 677.5L-6.45091e-06 642.5L63.4833 575.713L-1.112e-05 510L-1.49256e-05 469Z" fill="url(#paint1_linear)"/>
<path d="M1279.96 174.745L1279.96 218.807L1279.96 304.928L1207.44 227.544L1071.96 87.3476L1156.96 1.48868e-05L1228.96 9.40339e-05L1279.96 9.55014e-05L1279.96 9.51327L1279.96 22.5317L1216.48 87.3475L1279.96 153.716L1279.96 174.745Z" fill="url(#paint2_linear)" fill-opacity="0.8"/>
<defs>
<linearGradient id="paint0_linear" x1="1080" y1="566.364" x2="50.925" y2="140.423" gradientUnits="userSpaceOnUse">
<stop stop-color="#1250C4"/>
<stop offset="1" stop-color="#0CC0EA"/>
</linearGradient>
<linearGradient id="paint1_linear" x1="76.0014" y1="740" x2="34.5016" y2="433.5" gradientUnits="userSpaceOnUse">
<stop stop-color="#54D1EF"/>
<stop offset="1" stop-color="#1250C4"/>
</linearGradient>
<linearGradient id="paint2_linear" x1="1211.96" y1="-133.187" x2="1211.96" y2="306.306" gradientUnits="userSpaceOnUse">
<stop stop-color="#0CBAE8"/>
<stop offset="1" stop-color="#76DCF3"/>
</linearGradient>
</defs>
</svg>
